# xmcd CD database file
#
# Track frame offsets:
#	150
#	14297
#	30691
#	48292
#	62076
#	79890
#	93406
#	114862
#	132792
#	151321
#	169970
#	191305
#	214615
#	230658
#	247279
#	269619
#	283509
#	299574
#
# Disc length: 4426 seconds
#
# Revision: 1
# Processed by: cddbd v1.5.2PL0 Copyright (c) Steve Scherf et al.
# Submitted via: CDex 1.51
#
DISCID=04114812
DTITLE=Various Country Artists - Country CD 02
DYEAR=1900
DGENRE=Country
TTITLE0=If I Said You Had A Beautiful Body( Would You Hold It Against me - If I Said You Had A Beautiful Body( Would You Hold It Against me)
TTITLE1=If Tommorow Never Comes - If Tommorow Never Comes
TTITLE2=If I Was You - If I Was You
TTITLE3=If I - m Ever Over You
TTITLE4=Baby I Lied - Baby I Lied
TTITLE5=Beer Run (B double E double Are You In - Beer Run (B double E double Are You In)
TTITLE6=Cowboy Take Me Away - Cowboy Take Me Away
TTITLE7=Kelly Clarkson - Does He Love You (Reba duet)
TTITLE8=Don - t Take That Girl
TTITLE9=Patty Loveless - Don't Toss Us Away
TTITLE10=Forever And For Always - Forever And For Always
TTITLE11=Go Rest High On That Mountain - Go Rest High On That Mountain
TTITLE12=Gone - done it
TTITLE13=He Would Be Sixteen - He Would Be Sixteen
TTITLE14=How Can I Help You To Say Goodbye - How Can I Help You To Say Goodbye
TTITLE15=I Miss Billy The Kid - I Miss Billy The Kid
TTITLE16=I Will Be There - I Will Be There
TTITLE17=Eagles - Hotel California
EXTD=
EXTT0=
EXTT1=
EXTT2=
EXTT3=
EXTT4=
EXTT5=
EXTT6=
EXTT7=
EXTT8=
EXTT9=
EXTT10=
EXTT11=
EXTT12=
EXTT13=
EXTT14=
EXTT15=
EXTT16=
EXTT17=
PLAYORDER=
